<?xml version="1.0" encoding="utf-8"?>
<!-- Generator: Adobe Illustrator 24.0.1, SVG Export Plug-In . SVG Version: 6.00 Build 0)  -->
<svg version="1.1" id="图层_1" xmlns:vectornator="http://vectornator.io"
	 xmlns="http://www.w3.org/2000/svg" xmlns:xlink="http://www.w3.org/1999/xlink" x="0px" y="0px" viewBox="0 0 566.9 566.9"
	 style="enable-background:new 0 0 566.9 566.9;" xml:space="preserve">
<style type="text/css">
	.st0{display:none;fill:url(#SVGID_1_);}
	.st1{display:none;fill:url(#SVGID_2_);fill-opacity:0;}
	.st2{fill:url(#SVGID_3_);}
	.st3{fill:#E9EEF6;}
	.st4{fill:url(#SVGID_4_);}
	.st5{fill:#1954B8;}
	.st6{fill:#E8ECF3;}
	.st7{fill:#E5E9F0;}
</style>
<g id="layer0" vectornator:layerName="layer0">
	
		<linearGradient id="SVGID_1_" gradientUnits="userSpaceOnUse" x1="505.5" y1="566.9291" x2="505.5" y2="-444.0709" gradientTransform="matrix(0.5608 0 0 -0.5608 0 317.9116)">
		<stop  offset="0" style="stop-color:#102595"/>
		<stop  offset="1" style="stop-color:#008E9B"/>
	</linearGradient>
	<path class="st0" d="M0,0h566.9v566.9H0V0z"/>
</g>
<g id="layer1" vectornator:layerName="layer1">
	
		<linearGradient id="SVGID_2_" gradientUnits="userSpaceOnUse" x1="506.7385" y1="565.0737" x2="506.7385" y2="-445.9308" gradientTransform="matrix(0.5608 0 0 -0.5608 0 317.9116)">
		<stop  offset="0" style="stop-color:#102595"/>
		<stop  offset="1" style="stop-color:#008E9B"/>
	</linearGradient>
	<path class="st1" d="M0.7,1h566.9V568H0.7V1z"/>
</g>
<g id="layer2" vectornator:layerName="layer2">
	
		<linearGradient id="SVGID_3_" gradientUnits="userSpaceOnUse" x1="942.2806" y1="-461.8116" x2="140.9505" y2="613.2305" gradientTransform="matrix(0.5608 0 0 -0.5608 -28.9561 313.6184)">
		<stop  offset="0.1639" style="stop-color:#154390"/>
		<stop  offset="0.4286" style="stop-color:#1E59BB"/>
		<stop  offset="0.9895" style="stop-color:#85A3D6"/>
	</linearGradient>
	<path class="st2" d="M262.6,0.7C196.3,38.6,145.9,92,129.2,176.9c-1.8,3.4-0.3,12.3-0.8,18.1l0.8-0.1
		c6.1,51.6,54.2,68.6,115.2,62.2c0.9-0.5,7.1,0.9,8-0.9c15.9-2.4,31.4-5.9,44-10.4c10.8-3.8,20.9-8.9,29.5-13.8
		c7.2-4.9,15.5-9,21.4-14.2c-2.6-6.2-18.2-5.8-23.1-11.1c-7.7-2.6-14.6-7.3-19.9-11.3c-4.5-4.3-10.7-8.2-13.5-13.1
		c-3.1-4.8-6.4-10.6-8.1-15.7c-2.4-6-4.5-13.8-3.6-21.9c0.6-7.1,2.9-14.2,5.4-18.4c12.8-25.2,43.4-30.5,70.1-22.8
		c26.6,7.7,50.2,28.6,49.4,54.3c0,3.9,0,10.4,0,15.5c1.5,5.7-2.9,13.3-4.7,18.7c-1.8,5.4-1.7,8.3,10.3,6.2
		c6.8-7.6,17.3-13,32.6-11.4c11.9,1.8,19.9,8.9,25.5,15.9c4.1,7,6.9,18.7,3.6,27.2c-0.7,8.2-5.9,13.6-10,17.6
		c-2.8,3.8-9.7,5.4-12.7,7.9c-5.3,1.8-15.4,0.5-21,0.9c-6-2.6-13.6-5-16.4-9.7c-3.9-3.1-7.7-8-9.1-12.4c-0.6-5-0.6-11.5-5.9-10.9
		c-3.7-1.5-11.1-0.7-15-0.9c-34,39.2-86,62.2-156.4,65.2c-6.5,0-14.4,0-19.8,0c-2.5,0-7,0-8.1,0c-55-8-93.7-31-101-87.3
		c0-5.5,0-13.4,0-20c0.8-11.7,2.3-23.7,5.4-32.2c2.9-8.2,4.4-18.7,8.1-25.1c2.2-7.4,6.6-13.8,9-20c2.4-5.4,6.4-10.6,8.1-15.7
		c21.7-24.4,35-55.9,63.1-74.3c-3.6,1-7.4,1.7-10.8,2.8c-15.8,5.8-37.4,10.3-52.7,18.5c-16,5.6-33.6,14-47.9,23.2
		c-13.4,8.1-28.9,18.5-39.9,30.9c-6.7,14.6-14.3,32.7-19.2,51c-5.5,15.7-9.3,37.5-12.8,57.1C3.9,214.8,0,236.5,0,259.5
		c0.7,23-1.1,48.5,1.6,69.5c1,20.1,4.5,42.1,9.6,60.2c1.4,19.6,9.1,37.7,14.4,55.6c4.9,16.3,12.1,34.8,25.6,44.8
		c9.4,11.9,27.3,20.1,41.5,29.3c14.4,7.1,32.1,15.4,49.5,21.6c15.9,5.6,36.4,11.3,55.9,15.4c16.1,5.4,39.6,8.2,60.7,10.8
		c24.2-0.3,50.4,1.3,70.3-3.1c20-1.7,40.2-7.6,59.1-12.4c17.8-3.9,37-10.7,54.3-17c13.9-7.6,33.4-14.2,46.3-24.7
		c13.7-7.7,30.4-17.1,38.3-32.4c9.2-12.2,14.6-32.4,19.2-51c7.1-14.2,9.9-36.9,14.4-55.6c2.5-18.6,6.4-40.3,6.4-63.3
		c-0.7-23,1.1-48.5-1.6-69.5c-0.6-20.5-4.7-42-8-61.8c-3.9-17.2-8.1-38.7-14.4-55.6c-6.7-14.5-12.5-34.4-27.1-43.2
		c-10.2-11.1-27-20.3-41.5-29.3c-14.9-6.6-33-14.6-49.5-21.6c-17.9-3.7-35.9-11.8-55.9-15.4c-16.9-4.7-39.3-8.5-62.3-9.3
		c-5.6-0.8-11.3-1.3-17.2-1.4C280.5-0.2,271.4,0.1,262.6,0.7z"/>
	<path class="st3" d="M262.6,0.7c-8.7,0.6-17,1.5-24.7,2.4c-15.9,1.8-32.7,5.4-48.3,9.6c-28,18.4-41.4,49.9-63.1,74.3
		c-1.7,5.1-5.7,10.3-8.1,15.7c-2.4,6.2-6.8,12.6-9,20c-3.6,6.5-5.2,16.9-8.1,25.1c-3.1,8.5-4.6,20.5-5.4,32.2c0,6.6,0,14.5,0,20
		c7.2,56.3,45.9,79.2,101,87.3c1.1,0,5.7,0,8.1,0c5.3,0,13.3,0,19.8,0c70.4-3,122.4-25.9,156.4-65.2c3.9,0.2,11.3-0.6,15,0.9
		c5.3-0.6,5.2,5.9,5.9,10.9c1.4,4.4,5.2,9.3,9.1,12.4c2.7,4.7,10.4,7.1,16.4,9.7c5.6-0.4,15.7,0.9,21-0.9c3-2.6,9.9-4.1,12.7-7.9
		c4.1-4,9.2-9.3,10-17.6c3.2-8.4,0.4-20.2-3.6-27.2c-5.6-6.9-13.6-14.1-25.5-15.9c-15.4-1.6-25.8,3.7-32.6,11.4
		c-12,2.1-12.1-0.8-10.3-6.2c1.8-5.4,6.3-13,4.7-18.7c0-5.1,0-11.6,0-15.5c0.9-25.7-22.7-46.6-49.4-54.3
		c-26.6-7.7-57.3-2.4-70.1,22.8c-2.6,4.2-4.8,11.2-5.4,18.4c-0.8,8.1,1.2,15.9,3.6,21.9c1.7,5,5,10.9,8.1,15.7
		c2.8,4.9,9,8.8,13.5,13.1c5.2,4,12.1,8.7,19.9,11.3c4.9,5.3,20.5,4.8,23.1,11.1c-5.9,5.2-14.1,9.3-21.4,14.2
		c-8.6,4.9-18.8,10-29.5,13.8c-12.6,4.6-28.1,8.1-44,10.4c-0.9,1.8-7.1,0.4-8,0.9c-61,6.5-109.1-10.6-115.2-62.2l-0.8,0.1
		c0.5-5.7-1-14.7,0.8-18.1C145.9,92,196.3,38.6,262.6,0.7z"/>
	
		<linearGradient id="SVGID_4_" gradientUnits="userSpaceOnUse" x1="1120.2792" y1="-332.3853" x2="320.132" y2="741.0699" gradientTransform="matrix(0.5608 0 0 -0.5608 -28.9561 313.6184)">
		<stop  offset="0.1639" style="stop-color:#154390"/>
		<stop  offset="0.4286" style="stop-color:#1E59BB"/>
		<stop  offset="0.9895" style="stop-color:#85A3D6"/>
	</linearGradient>
	<path class="st4" d="M332.6,125.9c4.3,0,8.7,0.5,11.4,1.8c3,1,8.6,2.2,11.6,4.3c3.5,1.2,7.6,4.2,10.7,6.9c2.4,3.2,5.6,7.8,8,12.1
		c3.8,3.3,2.5,13.5,2.6,21.4c-1.7,6.3-4.7,13.2-8,18.9c0.3,0.9-0.3,0.8-1.3,0.7c-1-0.1-2.2,0.6-1.9,0.8c-30.4-7.5-65.8-20.6-55-57.6
		c1.7-3.6,5.2-7.2,11.3-7.5C324.1,126.5,328.3,125.9,332.6,125.9z"/>
	<path class="st5" d="M431.2,244.8c1.8,0,6.9,0,10,0c9.5-1.7,16.8-8.2,19.3-17.7c0-3.6,0-9,0-11.4c-2.1-8.8-9.1-15.8-19.3-17.8
		c-3.1,0-8.2,0-10,0c-10.3,1.6-16.7,9.5-19.3,19.4c0,2.4,0,6.8,0,7.9C413.6,235.1,420.4,242.8,431.2,244.8z"/>
	<path class="st6" d="M274.8,403.6l-1.3,0.2c-0.2,0.7-2.6,0-2.8,0.2c-6.7,5.7-12.3,13.1-13.9,23.3c0,1.2,0,3.2,0,3.9
		c0.8,2.1,2.8,3.8,4,5c0.6,0.5,1.7,1,2.6,1.4c0.9,0.5,1.6,0.7,1.3,1.2c-1.8,1.4-3,3.8-4.3,5.2c-0.7,1.6-2.5,2.8-3.3,3.9
		c-2.5,5.4-10.3,11.1-8.4,17.4c0.3,0,1,0.1,1.4,0.1c6-9.6,14.4-18.1,26.3-27.2c0.1-0.1,0.2-0.1,0.3-0.1c0.1-0.1,0.1-0.1,0.2-0.2
		c1.8-1.6,4.5-2.6,6.5-3.5c3.5-1.2,6-3.7,9.4-4.6c2.5-1,4.2-3.4,6.9-3.9c1-1.8,3.6-2.7,4.8-3.9c2.2-2.1,7.2-4.5,10.7-7.3
		c3.5-2.8,5.4-6.3,1.3-10.2c-1.4,0-3.6,0-4.5,0c-0.2,0.1-0.5,0.2-0.7,0.3c0,0,0,0,0,0c-0.1,0.2-0.2,0.4-0.4,0.5
		c-4.7,2.8-8.7,5.3-16.8,10.4c-0.3,0.2-0.3,0.2-0.5,0.3c-2.4,1.5-3.4,2.1-5,3.1c0,0-0.1,0-0.1,0.1c-1.8,1.6-2.7,2.4-3.9,3.2
		c-3.1,2.3-5.9,4.1-11.3,7.5c-1.4,1.3-2.9,2.6-5.2,2.6c-1.1,0.7-1.9,0.8-2.6,0.5c-0.5,0.1-1-0.2-1.1-0.7c0,0,0-0.1,0-0.1
		c-0.4-0.6-0.5-1.4-0.2-2.1c-0.6-7.9,2.6-15.9,8.6-20.8c0.2-0.2,0.4-0.2,0.7-0.2c0,0,0.1,0,0.1,0.1c1.3-0.9,2.9-1.8,3.7-2.5
		C278.2,406,277.9,404.8,274.8,403.6L274.8,403.6z"/>
	<path class="st7" d="M426.4,404.4c-1.5,3.8-2.5,8.9-4.8,12.3c-1.4,0.5-1.8,3-3.2,3.9c-0.8,1.3-2.4,2.9-3.6,4.2
		c-1.4,1.2-2.9,3.3-4.4,4.9c-1.8,2-4.2,4.2-6.5,6.3c-2.3,0.2-2.2,3.6-5.7,3.2c-1.2-1.7-4.1-2.8-5.8-4.6c-1.1,0-3.1,0-3.7,0
		c-7.2,1.9-13.1,5.9-19.7,8.8c-0.7,0.4-2.3,0.6-2.8,0.7c0.3-0.7,1-1.5,1.4-1.4c2.4-1.7,2.4-4.2,1-5.9c-1.4-1.7-4-2.8-6.4-2.1
		c1.4-2.1,8.1-3.8,4.8-8c-0.6-0.7-3.9-1.7-4.9-1.4c-0.5,0.7-3.1,0.1-3.6,0.3c-15.4,2.4-18.6,16-31.9,20c-2.6,0.2-4.4,2.2-7.3,2.5
		c-0.5,0.7-1.7,1.4-2.8,1c-0.4-0.2-0.2-0.5,0.1-0.9c0.3-0.5,0.6-0.8,0.7-0.9c0.1-1.9,2.5-4,4-6c1.5-1.9,2-4-1.5-5.6
		c-1.2,0-3.3,0-4.1,0c-9.1,5.4-17.1,12.8-28,16.9c-0.5,0.8-1.9,1.3-3.1,1.1c-0.1-0.3,0-0.6,0.1-0.9c0.1-0.3,0-0.4,0.2-0.2
		c1.6-4.7,4.5-8.8,7.7-12.3c0.3-1.3,1.9-1.5,3.2-1.9c1.3-0.4,2.3-1.1,1.2-2.8c-0.6-0.8-2.2-0.3-3.6-0.1c-2.6,1.3-5,3-7.1,5
		c-0.1,0.1-0.1,0.3-0.2,0.4c-0.1,0-0.3,0-0.4,0.1c-2.4,2.4-4.4,5.2-5.8,8.2c-0.2,0.5-0.4,0.9-0.9,1.8c0,0,0,0,0,0
		c-0.5,0.9-0.7,1.3-0.9,1.8c0,0.1-0.1,0.1-0.2,0.2c-0.1,0.2-0.2,0.4-0.2,0.6c-0.2,2.7,2.5,3.7,4.1,5.1c2.4,1.2,5.5,0.3,8.2-0.7
		c2-1,4.4-2.5,6.5-3.9c2.5-0.4,4.2-2.5,6.6-3.5c0.3-0.2,1.8-1.5,3.1-2.2c1.3-0.7,2.2-1,1.8,0.9c0.7,2.6,4.4,3.5,6.3,5.4
		c1.2,0,3.4,0,3.5-0.4c5.1-1.3,10.2-3.1,15.2-4.8c2.3-1.3,4.3,3.9,7.5,4.2c1,0,2.8,0,3.3,0c8.5-0.1,13.4-11.2,19.5-2.2
		c2,0,4.8,0,6.3,0c8-2.7,13.2-8.8,21.5-11.6c-0.1-0.6,0.8-0.8,1.7-0.8c0.9,0,1.7,0,1.3,0.5c4,4.3-2.7,6.1-2.6,11
		c-1.4,4.1,3.5,7.9,6.6,10c0,0,0.1,0,0.1,0c5.3,0.2,10.6-0.3,16.8-1.3c1-0.2,1.9-0.3,2.9-0.5c0.5-0.1,1-0.2,1.5-0.3
		c0.4-0.1,0.8-0.1,1-0.3c0.2-0.5,1.2-0.4,2.1-0.3c0.4-0.1,0.7-0.1,1.1-0.2c0.8-0.2,1.9-0.5,2.8-0.7c8.6-2.8,16.1-6.5,23.7-10.3
		c1,1,2.9,2.1,4.7,2.8c0.9,1.6,4.1-0.1,5.9,0.7c1.8-0.6,3.6-2.2,6.6-2.1c0.9-1.4,2-1.5,3.1-1c0.7,0.3,1.3,1,1.8,1.7
		c0.4,0.3,0.9,0.8,1.2,1.2c0.1,0.1,0.2,0.1,0.3,0.2c0.9,0.3,1.9,0.7,2.6,1.4c0.2,0.1,0.3,0.1,0.5,0.2c0.7,0.2,1.5,0.3,2.6,0.4
		c0.2,0,0.3,0,0.7,0c0.3,0,0.4,0,0.5,0c0.1,0,0.1,0.1,0.2,0.1c0.3,0,0.7,0,0.9,0c2.2-2,6.9-3.6,6.3-7.9c-2.1,0-5-0.1-6.7-0.1
		l-0.2-0.2c-6.4,3.1-5-4.9-8.8-5.8c-2.9-3.7-7.1,1.1-11,1c-0.7,0.8-2.2,1.3-3.2,1.4c-0.5-0.4-0.1-0.6,0.4-0.9
		c0.5-0.3,1.2-0.5,1.4-0.5c1.4-0.5,2.1-2.1,1.9-3.3c-0.2-1.2-1.4-2.5-3-2.7c-1.2,0-3.3,0-4.1,0c-5.8,3.8-11.4,8.3-18.2,10.9
		c-0.1,0.1-0.1,0.1-0.2,0.2c-0.7,0.3-1.3,0.6-2.1,0.9c-0.1,0.4-0.5,0.5-1.1,0.4c0,0-0.1,0-0.1,0c-0.2,0.1-0.3,0.1-0.5,0.2
		c-2.1,0.6-4.1,1.3-7.5,2.5c-0.2,0.1-0.3,0.1-0.8,0.3c-0.5,0.2-0.8,0.3-1.3,0.4c-0.1,0.5-0.7,0.5-1.4,0.5c0,0,0,0,0,0
		c-7.4,2.5-11.5,3.6-16.5,3.8c-0.3,0-0.5-0.1-0.7-0.3c-1.4,0-1.5-0.6,1.2-2.5c0.8-0.7,3.5-0.1,4.3-0.3c2.2-0.1,2.7-1.6,2.6-3
		c-0.2-1.3-0.9-2.6-0.7-2.7c2.2-3.8,7.2-5.7,9.5-9.9c1.2-1.2,2.9-2.9,4-4.6c1.4-1.9,3.4-4,4.4-6.7c0.9-3.1,2.4-6.4,3.3-9.9
		c0-1,0-2.8,0-3.2C431.7,407.7,429.3,404.5,426.4,404.4L426.4,404.4z M353.9,435.2c0.2,0,0.3,0.1,0.4,0.2c0,0,0.1-0.1,0.1-0.1
		c0.2-0.1,0.5-0.1,0.7,0l1,0.4c0.4,0.2,0.7,0.6,0.5,1.1c-1.3,4-5.2,7.1-9.3,6.8c-0.4,0-0.7-0.3-0.8-0.6c-0.1-0.4-0.2-0.8-0.2-1.2
		c0-0.7,0.3-1.3,0.8-1.9c0-0.1,0-0.1,0.1-0.2c0.1-0.2,0.3-0.3,0.5-0.6c0,0,0.1-0.1,0.1-0.2c0.1-0.1,0.1-0.1,0.1-0.2
		c0.1-0.1,0.2-0.2,0.3-0.4c1.3-1.6,2.3-2.4,3.7-2.6c0.1,0,0.1,0,0.2-0.1c0,0,0-0.1,0.1-0.1l1.3-0.5
		C353.6,435.1,353.8,435.1,353.9,435.2L353.9,435.2z"/>
</g>
</svg>
