<?xml version="1.0" encoding="utf-8"?>
<!-- Generator: Adobe Illustrator 24.0.1, SVG Export Plug-In . SVG Version: 6.00 Build 0)  -->
<svg version="1.1" id="图层_1" xmlns="http://www.w3.org/2000/svg" xmlns:xlink="http://www.w3.org/1999/xlink" x="0px" y="0px"
	 viewBox="0 0 1920 1080" style="enable-background:new 0 0 1920 1080;" xml:space="preserve">
<style type="text/css">
	.st0{display:none;fill:url(#SVGID_1_);}
	.st1{fill:#C5D0D8;}
</style>
<title>background</title>
<linearGradient id="SVGID_1_" gradientUnits="userSpaceOnUse" x1="960" y1="-9.094947e-13" x2="960" y2="1080">
	<stop  offset="0" style="stop-color:#B9C6D2"/>
	<stop  offset="5.339999e-02" style="stop-color:#C2CFDB"/>
	<stop  offset="0.1045" style="stop-color:#D0DDE9"/>
	<stop  offset="0.4135" style="stop-color:#EDF0F8"/>
</linearGradient>
<rect class="st0" width="1920" height="1080"/>
<path class="st1" d="M1116.4,594.5H960c-14.4,0-26.1-11.7-26.1-26.1c0-14.4,11.7-26.1,26.1-26.1h156.5
	c57.6,0,104.3-46.6,104.3-104.2c0-55-42.6-100.5-97.5-104.1l-15.4-0.9l-6.5-13.9c-25.8-54.6-81.3-89.8-141.4-89.8
	s-115.6,35.3-141.4,89.8l-6.5,13.9l-15.3,1c-57.5,3.7-101,53.4-97.3,110.8c3.6,54.9,49.1,97.5,104.1,97.5c14.4,0,26.1,11.7,26,26.2
	c0,14.4-11.7,26-26,26c-86.3,0-156.5-70.2-156.5-156.5c0-77.1,56.5-142.1,131.2-154.3C815,218.6,884.7,177.3,960,177.3
	s145,41.4,181.7,106.5c74.7,12.2,131.2,77.3,131.2,154.3C1272.9,524.3,1202.7,594.5,1116.4,594.5z"/>
<path class="st1" d="M986.1,672.8c-6.9,0-13.6-2.8-18.5-7.6l-78.2-78.2c-10.2-10.1-10.2-26.6-0.1-36.8c0,0,0.1-0.1,0.1-0.1
	l78.2-78.2c10.2-10.2,26.7-10.1,36.9,0c10.1,10.2,10.1,26.6,0,36.8l-59.8,59.8l59.8,59.8c10.2,10.2,10.1,26.8-0.1,37
	C999.5,670,992.9,672.7,986.1,672.8z"/>
<path class="st1" d="M376,751.9h30.8v78.5c0,11.3-2.3,21.1-6.9,29.5c-4.5,8.3-11.5,15.1-20,19.3c-8.7,4.5-19.1,6.7-31,6.8
	c-12,0-22.4-2.3-31-6.8c-8.5-4.3-15.4-11-20-19.3c-4.6-8.4-6.9-18.2-6.9-29.5v-78.5h30.8v70.4c0,12.2,2.4,21.2,7.2,27
	c4.8,5.8,11.5,8.6,20,8.6c8.5,0,15.2-2.9,20-8.6c4.8-5.8,7.2-14.8,7.2-27L376,751.9z"/>
<path class="st1" d="M479,751.9c11,0,20.6,1.8,28.8,5.5c7.7,3.2,14.2,8.7,18.8,15.6c4.4,6.7,6.6,14.6,6.6,23.6
	c0,9-2.2,16.9-6.6,23.6c-4.6,6.9-11.2,12.3-18.8,15.6c-8.2,3.7-17.8,5.5-28.8,5.5H462v42.5h-30.8V751.9L479,751.9z M475.5,815.3
	c7.4,0,13.5-1.4,18.2-4.3c4.7-2.9,7-7.7,7-14.4c0-6.6-2.4-11.4-7.1-14.3c-4.7-2.9-10.8-4.4-18.1-4.4H462v37.4H475.5z"/>
<path class="st1" d="M597,751.9c12.1-0.2,24,2.5,34.9,7.7c10.3,5,18.8,12.8,24.8,22.6c6.1,9.9,9.1,21.7,9.1,35.4
	c0,13.7-3,25.5-9.1,35.5c-5.9,9.8-14.4,17.7-24.7,22.8c-10.4,5.2-22.1,7.8-35,7.8h-47.5V751.9L597,751.9z M593.6,857.7
	c13.1,0,23-3.5,29.7-10.4c6.7-7,10.1-16.9,10.1-29.7c0-12.7-3.4-22.5-10.2-29.4c-6.8-6.9-16.7-10.3-29.6-10.3h-13.3v79.9
	L593.6,857.7z"/>
<path class="st1" d="M744.6,751.9l53.5,131.8h-32.4L755.6,857h-49.9l-9.7,26.6h-30.6l52-131.8H744.6z M745.9,831.3l-15.7-41
	l-14.9,41H745.9z"/>
<path class="st1" d="M782.8,751.9h109.8v27.2H853v104.6h-30.6V779.1h-39.6L782.8,751.9z"/>
<path class="st1" d="M989.1,830.6h-51.5V857h59.6v26.6h-90.4V751.9H995v26.5h-57.4v25.9h51.5L989.1,830.6z"/>
<path class="st1" d="M1150.1,868.7c-5.1,6.1-11.7,10.7-19.2,13.2c-7.6,2.7-15.5,4.1-23.6,4c-11.6,0.1-23.1-2.8-33.3-8.4
	c-10.1-5.6-16.8-13.7-20.2-24.2l24.8-14.2c2.4,5.8,6.4,10.7,11.6,14.2c5.4,3.4,11.7,5.2,18.1,5c5.2,0,9.3-1,12.5-3
	c3.1-1.8,4.9-5.2,4.8-8.7c0.1-2.9-1.1-5.7-3.2-7.7c-2.4-2.2-5.1-3.9-8.1-5c-4.5-1.7-9-3.2-13.7-4.5c-7.2-2-14.3-4.5-21.2-7.6
	c-5.6-2.6-10.4-6.5-14.1-11.4c-4-5.1-5.9-11.8-5.9-20.1c0-9.1,2.4-16.7,7.1-22.9c4.8-6.2,11.2-10.9,18.5-13.7
	c7.8-3,16.2-4.6,24.6-4.5c11.5,0,21.6,2.6,30.2,7.9c8.4,4.9,14.4,13.1,16.7,22.5l-25.2,14.2c-1.6-5-4.7-9.4-8.9-12.6
	c-4.3-3.1-9.4-4.7-14.7-4.5c-4.9,0-8.9,1.1-12,3.4c-2.9,2-4.6,5.3-4.6,8.8c0,2.7,1.1,5.3,3.2,7c2.3,2,4.9,3.6,7.8,4.7
	c3.1,1.2,7.6,2.7,13.3,4.5c7.4,2.1,14.6,4.7,21.6,7.8c5.6,2.7,10.6,6.7,14.4,11.6c4.1,5.2,6.1,11.9,6.1,20.2
	C1157.7,854.7,1155.2,862.6,1150.1,868.7z"/>
<path class="st1" d="M1256.4,830.6h-51.5V857h59.6v26.6h-90.4V751.9h88.2v26.5h-57.4v25.9h51.5L1256.4,830.6z"/>
<path class="st1" d="M1305.7,751.9l32.2,88.2l31-88.2h33.3l-52,131.8H1324l-53.5-131.8H1305.7z"/>
<path class="st1" d="M1498.5,830.6H1447V857h59.6v26.6h-90.4V751.9h88.2v26.5H1447v25.9h51.5L1498.5,830.6z"/>
<path class="st1" d="M1640.7,883.7l-36.5-0.2L1575,839h-17.5v44.6h-30.8V751.9h47.9c10.9,0,20.4,1.8,28.5,5.4
	c8.1,3.6,14.3,8.7,18.6,15.3c8.4,13.7,8.7,30.9,0.5,44.8c-4.2,6.5-10.1,11.8-17.1,15.1L1640.7,883.7z M1557.5,777.8v35.5h13.5
	c6.8,0,12.7-1.3,17.6-4c4.9-2.7,7.3-7.3,7.3-13.8c0-11.8-8.3-17.6-24.8-17.6H1557.5z"/>
</svg>
